<?xml version="1.0" encoding="utf-8"?>
<!-- Generator: Adobe Illustrator 24.3.0, SVG Export Plug-In . SVG Version: 6.00 Build 0)  -->
<svg version="1.1" id="Ebene_1" xmlns="http://www.w3.org/2000/svg" xmlns:xlink="http://www.w3.org/1999/xlink" x="0px" y="0px"
	 viewBox="0 0 100.4 100.4" style="enable-background:new 0 0 100.4 100.4;" xml:space="preserve">
<path d="M50.2,0.6C22.8,0.6,0.6,22.8,0.6,50.2c0,27.4,22.2,49.6,49.6,49.6s49.6-22.2,49.6-49.6C99.8,22.8,77.6,0.6,50.2,0.6z
	 M27.6,42.1v15.7v4.8c0,0.6-0.6,0.9-1.8,0.9c-1.2,0-1.8-0.3-1.8-0.9v-5.2V42.4v-5.2c0-0.6,0.6-0.9,1.8-0.9c1.2,0,1.8,0.3,1.8,0.9
	V42.1z M35.1,63.7c-1.2,0-1.8-0.3-1.8-0.9l-0.1-5.2L33,42.7l-0.1-5.2c0-0.6,0.6-0.9,1.7-0.9c1.2,0,1.8,0.3,1.8,0.8l0.1,4.8L36.8,58
	l0.1,4.8C36.9,63.3,36.3,63.6,35.1,63.7z M52.1,42.1l-0.3,15.7l-0.1,4.8c0,0.6-0.6,0.9-1.8,0.8c-1.2,0-1.7-0.3-1.7-0.9l0.1-5.2
	l0.3-14.9l0.1-5.2c0-0.6,0.6-0.9,1.8-0.9c1.2,0,1.7,0.3,1.7,0.9L52.1,42.1z M76.3,44.1c0,0.7-0.6,1-1.8,1c-1.2,0-1.8-0.3-1.8-1v-1.7
	c0-2-2.2-3-6.5-3c-3.8,0-5.7,1.1-5.7,3.4v5.2l8.6,0.8c2.7,0.3,4.6,0.9,5.6,1.8c1,0.9,1.5,2.6,1.5,5.1v1.3c0,2.5-0.8,4.2-2.3,5.3
	c-1.5,1.1-3.8,1.6-6.8,1.6c-3,0-5.5-0.5-7.3-1.6c-1.9-1.1-2.8-2.9-2.8-5.3V43.3c0-2.4,0.9-4.2,2.7-5.3c1.8-1.1,4.1-1.7,6.9-1.7
	c6.4,0,9.7,2.2,9.7,6.5V44.1z M60.6,51.2l8.2,0.8c1.7,0.2,2.7,0.5,3.2,1.1c0.5,0.5,0.7,1.5,0.7,2.8v1.7c0,2.3-2,3.4-6.1,3.4
	c-4.1,0-6.1-1.1-6.1-3.4V51.2z"/>
</svg>
